<svg xmlns="http://www.w3.org/2000/svg"
 xmlns:xlink="http://www.w3.org/1999/xlink"
 width="24px" height="28px"  viewBox="0 0 24 28">
<path fill-rule="evenodd"  fill="#000000"
 d="M5.6173553,2.6331787 C4.6009064,3.3920898 1.7226257,7.508667 7.108719,16.83667 C12.782867,26.66748 18.182495,26.258545 19.26538,25.592896 C19.26538,25.592896 15.439209,19.148071 15.439209,19.148071 C14.53537,19.679077 13.7734375,18.80542 12.366974,16.906738 C12.343048,16.891235 9.622879,12.329102 9.61377,12.270508 C9.051483,11.0448 8.597641,9.791748 9.543259,9.234741 C9.543259,9.234741 5.6173553,2.6331787 5.6173553,2.6331787 ZM21.599365,24.235352 C22.01883,23.987915 22.115784,23.4729 21.890747,23.090576 C21.890747,23.090576 21.891907,23.086426 21.891907,23.086426 C21.891907,23.086426 18.904419,18.065674 18.902893,18.063354 C18.666595,17.665405 18.156738,17.541382 17.759918,17.772217 C17.759918,17.772217 15.929749,18.851318 15.929749,18.851318 C15.929749,18.851318 19.76587,25.313477 19.76587,25.313477 C19.76587,25.313477 21.596588,24.238892 21.595367,24.236816 C21.595367,24.236816 21.599365,24.235352 21.599365,24.235352 ZM11.874481,7.862671 C12.294098,7.61438 12.393372,7.100952 12.168549,6.7215576 C12.168549,6.7215576 12.169952,6.7164307 12.169952,6.7164307 C12.169952,6.7164307 9.096497,1.5496826 9.095032,1.5484619 C8.8585205,1.1485596 8.347855,1.0258789 7.9523926,1.2564697 C7.9523926,1.2564697 6.1220703,2.3364258 6.1220703,2.3364258 C6.1220703,2.3364258 10.043503,8.941406 10.043503,8.941406 C10.043503,8.941406 11.872925,7.8685303 11.873566,7.865967 C11.873566,7.865967 11.874481,7.862671 11.874481,7.862671 Z"/>
</svg>